<?xml version="1.0" encoding="UTF-8" standalone="no"?> <svg width="512" height="512" viewBox="0 0 512 512" fill="none" xmlns="http://www.w3.org/2000/svg">
<path d="M32 96H480V416H32V96Z" fill="#FBFBFB"/>
<path d="M32 96H256V416H32V96Z" fill="#32AB45"/>
<path fill-rule="evenodd" clip-rule="evenodd" d="M315.01 189.095C308.01 186.827 300.533 185.6 292.765 185.6C253.39 185.6 221.471 217.119 221.471 256C221.471 294.881 253.39 326.4 292.765 326.4C300.533 326.4 308.01 325.173 315.01 322.905C299.437 336.057 279.217 344 257.118 344C207.899 344 168 304.601 168 256C168 207.399 207.899 168 257.118 168C279.217 168 299.437 175.943 315.01 189.095Z" fill="#E92B2B"/>
<path d="M281.868 214.083L305.6 236.823L333.257 219.831L320.268 250.877L344 273.617L312.24 270.065L299.251 301.111L292.611 267.869L260.851 264.317L288.508 247.325L281.868 214.083Z" fill="#E92B2B"/>
</svg>
