<svg width="64px" height="104px" viewBox="0 0 64 104" version="1.1" xmlns="http://www.w3.org/2000/svg" xmlns:xlink="http://www.w3.org/1999/xlink">
    <!-- Generator: Sketch 40.1 (33804) - http://www.bohemiancoding.com/sketch -->
    <title>34-multimeda-mic-stand-up</title>
    <desc>Created with Sketch.</desc>
    <defs></defs>
    <g id="3.Multimedia" stroke="none" stroke-width="1" fill="none" fill-rule="evenodd" stroke-linecap="round" stroke-linejoin="round">
        <g id="Multimedia-(Stroke)" transform="translate(-718.000000, -702.000000)" stroke="#263238" stroke-width="3.5">
            <g id="34-multimeda-mic-stand-up" transform="translate(720.000000, 704.000000)">
                <rect id="Layer-1" x="10" y="0" width="40" height="70" rx="20" style="stroke: rgb(237, 246, 247);"></rect>
                <path d="M10,20 L20,20" id="Layer-2" style="stroke: rgb(237, 246, 247);"></path>
                <path d="M10,30 L20,30" id="Layer-3" style="stroke: rgb(237, 246, 247);"></path>
                <path d="M10,40 L20,40" id="Layer-4" style="stroke: rgb(237, 246, 247);"></path>
                <path d="M10,50 L20,50" id="Layer-5" style="stroke: rgb(237, 246, 247);"></path>
                <path d="M40,50 L50,50" id="Layer-6" style="stroke: rgb(237, 246, 247);"></path>
                <path d="M40,40 L50,40" id="Layer-7" style="stroke: rgb(237, 246, 247);"></path>
                <path d="M40,30 L50,30" id="Layer-8" style="stroke: rgb(237, 246, 247);"></path>
                <path d="M40,20 L50,20" id="Layer-9" style="stroke: rgb(237, 246, 247);"></path>
                <path d="M60,49.9927367 C60,66.5652906 46.5721855,80 30,80 L30,80 C13.4314575,80 0,66.5673744 0,49.9927367" id="Layer-10" style="stroke: rgb(237, 246, 247);"></path>
                <path d="M30,80 L30,100" id="Layer-11" style="stroke: rgb(237, 246, 247);"></path>
                <path d="M10,100 L50,100" id="Layer-12" style="stroke: rgb(237, 246, 247);"></path>
                <path d="M0,50 L3,50" id="Layer-13" style="stroke: rgb(237, 246, 247);"></path>
                <path d="M57,50 L60,50" id="Layer-14" style="stroke: rgb(237, 246, 247);"></path>
            </g>
        </g>
    </g>
</svg>