<svg version="1.1" id="Layer_1" xmlns="http://www.w3.org/2000/svg" xmlns:xlink="http://www.w3.org/1999/xlink" x="0px" y="0px" viewBox="0 0 53 53" style="enable-background:new 0 0 53 53;" xml:space="preserve">
<g>
	<g>
		<path d="M24.5824795,48.3003464c8.7773418-1.3466797,15.3779278-8.7822266,15.6982403-17.6796875
			c0.0009766-0.0517578-0.0224609-0.0869141-0.0429688-0.1074219c-0.0175781-0.0185547-0.0566406-0.0488281-0.1171875-0.0488281
			h-4.7558594c0.0576172,0.2460938,0.0859375,0.5029297,0.0859375,0.7705078c0,1.0351563-0.4667969,2.0009766-1.2802734,2.6494141
			c-0.8115234,0.6464844-1.8662109,0.8818359-2.8906231,0.6474609c-1.4013672-0.3027344-2.4677734-1.5400391-2.5869141-3.0058594
			c-0.0332031-0.3623047-0.0087891-0.7207031,0.0693359-1.0615234h-6.53125v6.1708984
			c0,0.1728516-0.0888672,0.3330078-0.2353516,0.4238281c-0.1455078,0.0927734-0.3291016,0.1015625-0.4833984,0.0253906
			c-0.9365234-0.453125-2.2207031-0.2177734-2.9208984,0.6396484c-0.4589844,0.5615234-0.6298828,1.2724609-0.4804688,2.0009766
			c0.1894531,0.9384766,0.9785156,1.6982422,1.9179688,1.8457031c0.515625,0.0810547,1.0292969,0.0058594,1.4824219-0.2148438
			c0.0693359-0.0341797,0.1445313-0.0507813,0.2197266-0.0507813c0.0917969,0,0.1835938,0.0253906,0.2646484,0.0761719
			c0.1464844,0.0908203,0.2353516,0.2509766,0.2353516,0.4238281v6.7128906
			C23.0180264,48.4966354,23.8061123,48.4233932,24.5824795,48.3003464z" id="id_101" style="fill: rgb(237, 246, 247);"></path>
		<path d="M29.7434902,47.8086472c7.5865459-2.133667,13.1854229-8.9140625,13.4776592-17.190918
			c0.0019531-0.0449219-0.0234375-0.0800781-0.0439453-0.1015625c-0.0322266-0.0332031-0.0742188-0.0517578-0.1162109-0.0517578
			h-1.8122559c0.0085449,0.0622559,0.0335693,0.1203613,0.0319824,0.1845703c0,0.0009766,0,0.0029297,0,0.0039063
			C41.0087471,38.2444382,36.3964424,44.8228073,29.7434902,47.8086472z" id="id_102" style="fill: rgb(237, 246, 247);"></path>
		<path d="M21.230917,35.9321823v-5.4707031h-4.1904297c0.0585938,0.25,0.0878906,0.5087891,0.0878906,0.7724609
			c0,1.8701172-1.5214844,3.3916016-3.3916016,3.3916016c-1.8652344,0-3.3828125-1.5214844-3.3828125-3.3916016
			c0-0.2636719,0.0292969-0.5224609,0.0878906-0.7724609H3.1693935c0.2612305,9.8398438,8.222168,17.7773438,18.0615234,18.0388184
			v-5.9890137c-0.4375,0.1025391-0.8984375,0.1201172-1.3574219,0.0478516
			c-1.3447266-0.2119141-2.4716797-1.2958984-2.7431641-2.6357422c-0.2070313-1.0117188,0.0439453-2.0449219,0.6865234-2.8320313
			C18.6352139,36.0894089,20.0180264,35.6587448,21.230917,35.9321823z" id="id_103" style="fill: rgb(237, 246, 247);"></path>
		<path d="M21.1762295,11.450736c-0.0205078-0.0195313-0.0712891-0.0322266-0.1015625-0.0410156
			C11.1993008,11.7505407,3.4451504,19.638237,3.1869717,29.4614792h7.9648438c0.1728516,0,0.3339844,0.0898438,0.4257813,0.2373047
			c0.0908203,0.1474609,0.0986328,0.3310547,0.0214844,0.4863281c-0.1630859,0.3251953-0.2451172,0.6777344-0.2451172,1.0488281
			c0,1.3183594,1.0693359,2.3916016,2.3828125,2.3916016c1.3183594,0,2.3916016-1.0732422,2.3916016-2.3916016
			c0-0.3710938-0.0820313-0.7236328-0.2451172-1.0488281c-0.0771484-0.1552734-0.0693359-0.3388672,0.0214844-0.4863281
			c0.0917969-0.1474609,0.2529297-0.2373047,0.4257813-0.2373047h4.8955078v-5.9667969
			c0-0.1728516,0.0898438-0.3339844,0.2373047-0.4248047c0.1464844-0.0908203,0.3291016-0.1005859,0.4863281-0.0224609
			c0.3837891,0.1923828,0.8066406,0.2685547,1.2519531,0.2373047c1.0097656-0.0791016,1.9033203-0.8447266,2.125-1.8212891
			c0.1669922-0.7421875,0.0058594-1.4677734-0.4560547-2.0458984c-0.6884766-0.8603516-1.9541016-1.1386719-2.9208984-0.6542969
			c-0.1552734,0.0761719-0.3398438,0.0673828-0.4863281-0.0214844c-0.1474609-0.0917969-0.2373047-0.2529297-0.2373047-0.4257813
			v-6.750001C21.2260342,11.5230017,21.2074795,11.4810095,21.1762295,11.450736z M11.1479092,19.0230026
			c-2.015625,1.9404297-3.3535156,4.4228516-3.8681641,7.1796875c-0.0449219,0.2402344-0.2548828,0.4082031-0.4902344,0.4082031
			c-0.03125,0-0.0615234-0.0029297-0.0927734-0.0087891c-0.2714844-0.0507813-0.4501953-0.3115234-0.3994141-0.5830078
			c0.5527344-2.9619141,1.9902344-5.6308594,4.1572266-7.7167969c0.1982422-0.1894531,0.5146484-0.1845703,0.7070313,0.0136719
			C11.3529873,18.5151901,11.3471279,18.8315964,11.1479092,19.0230026z M16.2992764,15.9380407
			c-1.1650391,0.3759775-2.2734375,0.9121103-3.2958984,1.5927744c-0.0849609,0.0566406-0.1816406,0.0839844-0.2773438,0.0839844
			c-0.1611328,0-0.3193359-0.078125-0.4160156-0.2226563c-0.1533203-0.2304688-0.0908203-0.5400391,0.1386719-0.6933594
			c1.0986328-0.7314463,2.2910156-1.3076181,3.5439453-1.711915c0.2626953-0.0849609,0.5449219,0.0595703,0.6289063,0.3222656
			C16.7065029,15.5718298,16.5619717,15.8530798,16.2992764,15.9380407z" id="id_104" style="fill: rgb(237, 246, 247);"></path>
	</g>
	<g>
		<path d="M35.9049873,5.2671423c6.9194336,3.1105957,11.7128906,9.9555664,11.986084,17.8369141
			c0.0002441,0.0036621-0.001709,0.0068359-0.001709,0.010498c0.0029297,0.0708008,0.0009766,0.1411133-0.0090332,0.2102051
			h1.7705078c0.0644531,0,0.1074219-0.0351563,0.1279297-0.0556641c0.0195313-0.0205078,0.0537109-0.0654297,0.0517578-0.1308594
			C49.5384102,14.6677771,43.7283516,7.560111,35.9049873,5.2671423z" id="id_105" style="fill: rgb(237, 246, 247);"></path>
		<path d="M46.8920479,23.1499557c0-0.0029297-0.0009766-0.0058594-0.0009766-0.0078125
			C46.5727119,13.8970251,39.7143135,6.1489782,30.583456,4.7192907c-0.7705078-0.1269531-1.5605469-0.2050781-2.3515625-0.234375
			c-0.0703125-0.015625-0.1054688,0.0332031-0.1259766,0.0527344c-0.0214844,0.0205078-0.0556641,0.0634766-0.0556641,0.1269531
			v6.3183594c1.2734375-0.3125,2.7226563,0.1591797,3.5712891,1.21875c0.6689434,0.8359375,0.9160137,1.9267578,0.6777325,2.9931641
			c-0.3232403,1.4404306-1.6396465,2.57129-3.1298809,2.6884775c-0.3837891,0.0351563-0.7597656,0.0048828-1.1191406-0.0820313
			v5.34375c0,0.1044922,0.0761719,0.1796875,0.1806641,0.1796875h7.3896465c0.1728516,0,0.3339844,0.0898438,0.4257813,0.2373047
			c0.0908203,0.1474609,0.0986328,0.3310547,0.0214844,0.4863281c-0.1679688,0.3359375-0.2568359,0.7148438-0.2568359,1.0966797
			c0,0.7695313,0.3447266,1.4873047,0.9472656,1.9697266c0.5966797,0.4785156,1.3798828,0.6542969,2.1435547,0.4824219
			c0.2041016-0.0458984,0.4160156-0.1308594,0.6279297-0.2548828c0.7275391-0.4111328,1.2177734-1.1679688,1.2832031-1.9775391
			c0.0400391-0.4716797-0.0429688-0.9121094-0.2470703-1.3134766c-0.0791016-0.1542969-0.0722656-0.3398438,0.0185547-0.4882813
			c0.0917969-0.1474609,0.2529297-0.2382813,0.4267578-0.2382813h5.6992188c0.0498047,0,0.0996094-0.0214844,0.1357422-0.0595703
			C46.8686104,23.2417526,46.894001,23.2026901,46.8920479,23.1499557z" id="id_106" style="fill: rgb(237, 246, 247);"></path>
		<path d="M41.8090401,25.4478073c-0.065918,0.8127441-0.4447021,1.5805664-1.020752,2.1641846
			c0.3406982,0.0655518,0.6943359,0.0672607,1.0529785-0.0147705c1.0224609-0.2373047,1.828125-1.1767578,1.9111328-2.2314453
			c0.0322266-0.3703613-0.0344238-0.7138672-0.1536865-1.0410156h-1.8717041
			C41.8148994,24.6841354,41.8422432,25.060112,41.8090401,25.4478073z" id="id_107" style="fill: rgb(237, 246, 247);"></path>
	</g>
</g>
</svg>