<svg xmlns:dc="http://purl.org/dc/elements/1.1/" xmlns:cc="http://creativecommons.org/ns#" xmlns:rdf="http://www.w3.org/1999/02/22-rdf-syntax-ns#" xmlns:svg="http://www.w3.org/2000/svg" xmlns="http://www.w3.org/2000/svg" xmlns:sodipodi="http://sodipodi.sourceforge.net/DTD/sodipodi-0.dtd" xmlns:inkscape="http://www.inkscape.org/namespaces/inkscape" width="64" height="64" viewBox="0 0 16.933333 16.933334" version="1.1" id="svg8" inkscape:version="0.92.3 (2405546, 2018-03-11)" sodipodi:docname="06-Team skill.svg" inkscape:export-filename="/home/wanzabuyumna/@WANZ_DESIGN/NICON STUDIO MAGANG/Style Line/Style Line/Icon 6/Icon 6.png" inkscape:export-xdpi="96" inkscape:export-ydpi="96">
  <defs id="defs2"></defs>
  <sodipodi:namedview id="base" pagecolor="#ffffff" bordercolor="#959595" borderopacity="1" inkscape:pageopacity="0" inkscape:pageshadow="2" inkscape:zoom="7.919596" inkscape:cx="10.19742" inkscape:cy="34.213475" inkscape:document-units="px" inkscape:current-layer="layer1" inkscape:document-rotation="0" showgrid="false" units="px" inkscape:window-width="1920" inkscape:window-height="1040" inkscape:window-x="0" inkscape:window-y="0" inkscape:window-maximized="1" inkscape:pagecheckerboard="0"></sodipodi:namedview>
  <metadata id="metadata5">
    <rdf:rdf>
      <cc:work rdf:about="">
        <dc:format>image/svg+xml</dc:format>
        <dc:type rdf:resource="http://purl.org/dc/dcmitype/StillImage"></dc:type>
      </cc:work>
    </rdf:rdf>
  </metadata>
  <g inkscape:label="06-Team skill" inkscape:groupmode="layer" id="layer1">
    <path style="color: rgb(0, 0, 0); font-style: normal; font-variant: normal; font-weight: normal; font-stretch: normal; font-size: medium; line-height: normal; font-family: sans-serif; font-feature-settings: normal; text-indent: 0px; text-align: start; text-decoration: none solid rgb(0, 0, 0); letter-spacing: normal; word-spacing: normal; text-transform: none; writing-mode: lr-tb; direction: ltr; text-orientation: mixed; dominant-baseline: auto; baseline-shift: baseline; text-anchor: start; white-space: normal; clip-rule: nonzero; display: inline; overflow: visible; visibility: visible; opacity: 1; isolation: auto; mix-blend-mode: normal; color-interpolation: srgb; color-interpolation-filters: linearrgb; vector-effect: none; fill: rgb(237, 246, 247); fill-opacity: 1; fill-rule: nonzero; stroke: none; stroke-width: 2.00001; stroke-linecap: butt; stroke-linejoin: round; stroke-miterlimit: 4; stroke-dasharray: none; stroke-dashoffset: 0; stroke-opacity: 1; color-rendering: auto; image-rendering: auto; shape-rendering: auto; text-rendering: auto;" d="M 32,2 C 29.779263,2 27.998047,3.7988654 27.998047,5.9960938 27.998047,8.1933599 29.779263,10 32,10 34.220661,10 36.001953,8.1933599 36.001953,5.9960938 36.001953,3.7988654 34.220661,2 32,2 Z M 25.761719,7.9042969 C 25.593832,7.8929961 25.427214,7.9270551 25.275391,8 l -13.390625,6.177734 c -1.206464,0.530192 -0.396919,2.38069 0.83789,1.816407 L 26.115234,9.8164062 C 27.048815,9.3996755 26.80638,7.9798118 25.761719,7.9042969 Z m 12.476562,0 c -1.044795,0.075553 -1.287193,1.4953783 -0.353515,1.9121093 l 13.392578,6.1777348 c 1.234847,0.564283 2.044353,-1.286215 0.83789,-1.816407 L 38.724609,8 C 38.57305,7.9274331 38.406073,7.8948859 38.238281,7.9042969 Z M 32,12.998047 c -1.196126,-1.89e-4 -1.973132,0.09826 -2.621094,0.412109 -0.746873,0.361701 -1.023128,0.919833 -1.1875,1.314453 -0.164409,0.394659 -0.229033,0.617677 -0.435547,0.871094 -0.20674,0.253228 -0.583594,0.577112 -1.455078,0.945313 -0.874696,0.369637 -1.383872,0.421832 -1.720703,0.398437 -0.336756,-0.02268 -0.538555,-0.124902 -0.921875,-0.273437 -0.38332,-0.148914 -0.980633,-0.339865 -1.720703,-0.0957 -0.668485,0.220348 -1.327331,0.751325 -2.058594,1.492188 -0.793247,0.803603 -1.272326,1.466924 -1.46289,2.074219 -0.231307,0.737423 -0.02253,1.331359 0.132812,1.710937 0.156095,0.379616 0.25996,0.583228 0.289063,0.916016 0.03024,0.332976 -0.015,0.844269 -0.369141,1.720703 -0.355654,0.876435 -0.677063,1.272195 -0.929688,1.490234 -0.252472,0.218079 -0.468983,0.285337 -0.841796,0.44336 -0.484913,0.205228 -0.970198,0.492217 -1.292969,1.115234 -0.293291,0.5664 -0.413368,1.359635 -0.404297,2.464844 -0.0076,1.01537 0.08239,1.843603 0.404297,2.464844 0.322772,0.623018 0.810588,0.910912 1.292969,1.115234 0.372661,0.157984 0.577454,0.221489 0.830078,0.439453 0.252472,0.218079 0.585601,0.617707 0.941406,1.494141 0.349228,0.85954 0.39435,1.367225 0.369141,1.699219 -0.02646,0.33222 -0.123013,0.532803 -0.273438,0.892578 -0.181417,0.433511 -0.350459,0.975515 -0.177734,1.638672 0.126992,0.487411 0.384769,0.931949 0.800781,1.4375 -0.680693,1.116888 -1.215758,2.304804 -1.587891,3.589843 -0.722077,-1.06704 -1.671218,-1.91026 -2.796875,-2.527343 0.747628,-0.87534 1.195313,-2.00496 1.195313,-3.242188 0,-2.749533 -2.221152,-5.001953 -4.998047,-5.001953 -2.7769323,0 -5.0058594,2.25242 -5.0058594,5.001953 0,1.238665 0.450331,2.366432 1.2011719,3.242188 C 4.682418,43.596581 3,46.249645 3,49.306641 v 1.173828 c 0,2.504806 2.0201507,4.517578 4.4980469,4.517578 h 6.9980471 c 0.925191,0 1.786627,-0.276692 2.503906,-0.761719 v 3.769531 c 0,1.200605 0.377227,2.376646 1.292969,3.150391 0.91559,0.773745 2.254851,1.015039 3.787109,0.716797 0.02268,-0.0038 0.04448,-0.0099 0.06641,-0.01367 l 9.847657,-2.650391 9.886718,2.658204 c 1.565443,0.305763 2.867129,0.09674 3.824219,-0.708985 C 46.620517,60.387372 47,59.215928 47,58.021484 V 54.242188 C 47.717241,54.727063 48.578754,55 49.503906,55 h 6.998047 C 58.979849,55 61,52.987224 61,50.482422 V 49.308594 C 61,46.251599 59.31762,43.598531 56.804688,42.244141 57.555566,41.368383 58.005859,40.238665 58.005859,39 c 0,-2.749531 -2.228927,-5.001953 -5.005859,-5.001953 -2.776932,0 -4.998047,2.252422 -4.998047,5.001953 0,1.237228 0.447646,2.368798 1.195313,3.244141 -1.117871,0.601432 -2.078703,1.464217 -2.800782,2.53125 -0.372283,-1.284889 -0.905017,-2.484747 -1.585937,-3.601563 0.416504,-0.505965 0.67578,-0.943892 0.802734,-1.43164 0.172725,-0.663199 0.0035,-1.205161 -0.177734,-1.638672 -0.150047,-0.359808 -0.247737,-0.560546 -0.273438,-0.892578 -0.02646,-0.331844 0.01878,-0.839679 0.369141,-1.699219 0.355654,-0.876434 0.68882,-1.276062 0.941406,-1.494141 0.252473,-0.218079 0.457266,-0.281583 0.830078,-0.439453 0.482381,-0.204472 0.970197,-0.492217 1.292969,-1.115234 0.322016,-0.621242 0.41265,-1.449474 0.404297,-2.464844 0.0076,-1.105209 -0.110741,-1.898444 -0.404297,-2.464844 -0.322772,-0.623055 -0.808055,-0.909855 -1.292969,-1.115234 -0.372661,-0.157985 -0.589173,-0.225243 -0.841796,-0.44336 -0.252474,-0.218078 -0.573959,-0.613799 -0.929688,-1.490234 -0.355654,-0.876434 -0.398054,-1.387916 -0.369141,-1.720703 0.03024,-0.332599 0.132968,-0.5364 0.289063,-0.916016 0.156094,-0.379578 0.364497,-0.973513 0.132812,-1.710937 -0.190488,-0.607294 -0.669643,-1.270616 -1.46289,-2.074219 -0.731301,-0.740863 -1.390109,-1.271651 -2.058594,-1.492188 -0.740069,-0.244157 -1.337383,-0.05321 -1.720703,0.0957 -0.38332,0.148913 -0.585044,0.250004 -0.921875,0.273437 -0.336756,0.02268 -0.846005,-0.03024 -1.720703,-0.398437 C 36.827773,16.17289 36.450767,15.849121 36.244141,15.595703 36.0374,15.342475 35.973117,15.119267 35.808594,14.724609 35.644184,14.329986 35.367966,13.772008 34.621094,13.410156 33.973169,13.096078 33.196088,12.998235 32,12.998047 Z m -26,1 c -2.2207368,0 -4,1.798828 -4,3.996094 0,2.197229 1.7792632,4.003906 4,4.003906 2.220737,0 4.001953,-1.806677 4.001953,-4.003906 0,-2.197266 -1.781216,-3.996094 -4.001953,-3.996094 z m 52,0 c -2.220737,0 -4.001953,1.798828 -4.001953,3.996094 0,2.197229 1.781216,4.003906 4.001953,4.003906 2.220737,0 4,-1.806677 4,-4.003906 0,-2.197266 -1.779263,-3.996094 -4,-3.996094 z m -26,1 c 1.061916,0 1.588803,0.128795 1.75,0.207031 0.137575,0.06652 0.151348,0.173977 0.214844,0.294922 0.11074,0.265701 0.281196,0.806405 0.730468,1.357422 0.449275,0.55098 1.140363,1.072806 2.220704,1.529297 1.077205,0.455131 1.934445,0.601906 2.642578,0.552734 0.708132,-0.04913 1.231983,-0.29706 1.513672,-0.40625 0.167433,-0.06501 0.251721,-0.102312 0.361328,-0.06641 0.143622,0.04762 0.508409,0.232844 1.263672,0.998047 0.72034,0.729751 0.930275,1.128253 0.974609,1.269531 0.03024,0.118299 -0.01904,0.221167 -0.07422,0.351563 -0.09449,0.229417 -0.366241,0.791539 -0.427734,1.498046 -0.06161,0.706545 0.06878,1.569068 0.507812,2.650391 0.438879,1.081323 0.938736,1.787714 1.476563,2.251953 0.537827,0.464278 1.086444,0.656449 1.367187,0.775391 0.158741,0.06728 0.233694,0.07348 0.294922,0.191406 0.06123,0.118299 0.200479,0.509684 0.191406,1.542969 0.0076,0.972548 -0.10939,1.384417 -0.191406,1.542968 -0.06123,0.118302 -0.172465,0.139627 -0.294922,0.191407 -0.280819,0.119055 -0.82936,0.311075 -1.367187,0.77539 -0.537827,0.46424 -1.037684,1.170631 -1.476563,2.251953 -0.43045,1.060462 -0.561255,1.905841 -0.507812,2.605469 0.05329,0.699591 0.281969,1.175642 0.419922,1.50586 0.05858,0.165165 0.116615,0.257644 0.08789,0.36914 -0.0076,0.03024 -0.05091,0.136859 -0.08984,0.210938 -1.482293,-1.795314 -3.387784,-3.248315 -5.552735,-4.195313 1.229972,-1.408365 1.966797,-3.245264 1.966797,-5.255859 0,-4.406438 -3.595553,-8 -8.001953,-8 -4.406477,0 -8.001953,3.593562 -8.001953,8 0,2.011048 0.736221,3.84738 1.966797,5.255859 -2.165178,0.946545 -4.070782,2.400151 -5.552735,4.195313 -0.03855,-0.07408 -0.08153,-0.179568 -0.08984,-0.210938 -0.03024,-0.111496 0.03007,-0.203975 0.08789,-0.36914 0.137953,-0.330331 0.366632,-0.806231 0.419922,-1.50586 0.05329,-0.69959 -0.07748,-1.545007 -0.507812,-2.605469 -0.438879,-1.081322 -0.938736,-1.787713 -1.476563,-2.251953 -0.537827,-0.464239 -1.086481,-0.656486 -1.367187,-0.77539 -0.122835,-0.05178 -0.233694,-0.07348 -0.294922,-0.191407 -0.08202,-0.158362 -0.199723,-0.57042 -0.191406,-1.542968 -0.0076,-1.033285 0.130177,-1.424707 0.191406,-1.542969 0.06123,-0.118299 0.136181,-0.124131 0.294922,-0.191406 0.280819,-0.119055 0.82936,-0.311038 1.367187,-0.775391 0.537827,-0.464239 1.037684,-1.17063 1.476563,-2.251953 0.438916,-1.081323 0.569494,-1.943846 0.507812,-2.650391 -0.06161,-0.706507 -0.33336,-1.268743 -0.427734,-1.498046 -0.05367,-0.130774 -0.105967,-0.233642 -0.07422,-0.351563 0.04422,-0.141354 0.254344,-0.53978 0.974609,-1.269531 0.755263,-0.765128 1.119975,-0.950614 1.263672,-0.998047 0.109607,-0.03779 0.193895,0.0013 0.361328,0.06641 0.281575,0.109228 0.805578,0.357154 1.513672,0.40625 0.708095,0.04913 1.565376,-0.09753 2.642578,-0.552734 1.080378,-0.456492 1.771429,-0.978317 2.220704,-1.529297 0.449272,-0.551017 0.619841,-1.09191 0.730468,-1.357422 0.06387,-0.120945 0.07689,-0.228402 0.214844,-0.294922 0.161008,-0.07824 0.688046,-0.207031 1.75,-0.207031 z M 7.8007812,23.626953 c -0.6879873,-0.04309 -1.2124394,0.606073 -1.0253906,1.269531 l 1.7578125,6.65625 c 0.3068977,1.342412 2.3260599,0.812112 1.9335939,-0.507812 L 8.7089844,24.388672 C 8.6054253,23.963399 8.2375435,23.65477 7.8007812,23.626953 Z m 48.3984378,0 c -0.4368,0.02646 -0.804758,0.336371 -0.908203,0.761719 l -1.757813,6.65625 c -0.392428,1.319924 1.62681,1.850224 1.933594,0.507812 l 1.757812,-6.65625 c 0.187087,-0.663458 -0.337516,-1.312807 -1.02539,-1.269531 z M 27.669922,36.728516 C 28.915049,37.529209 30.408063,38 32,38 33.590841,38 35.079583,37.530142 36.324219,36.730469 41.389808,38.501405 45,43.298696 45,49 v 9.019531 c 3.8e-5,0.7872 -0.225269,1.307429 -0.583984,1.609375 -0.357166,0.300851 -0.967881,0.50016 -2.103516,0.28125 l -6.464844,-1.740234 4.117188,-1.109375 c 2.172888,-0.585033 3.48357,-2.81531 2.894531,-5.013672 -0.29178,-1.089411 -0.981983,-1.940686 -1.861328,-2.460937 v -0.597657 c -0.03024,-1.30405 -1.971049,-1.291195 -2,0.03516 -0.301606,-0.02268 -0.755913,0.02531 -1.136719,0.123046 l -12.859375,3.304688 v -3.462891 c -0.03024,-1.30405 -1.971049,-1.30405 -2,0 v 3.976563 l -0.25,0.06445 c -1.294488,0.329575 -0.800347,2.271019 0.494141,1.941406 l 15.117187,-3.882812 c 1.153172,-0.296315 2.275635,0.371175 2.56836,1.46875 0.297448,1.110311 -0.346183,2.264359 -1.482422,2.570312 l -17.753907,4.783203 c -0.0038,7.56e-4 -0.004,-7.56e-4 -0.0078,0 -1.135634,0.218835 -1.746276,0.01884 -2.103516,-0.28125 -0.358677,-0.303118 -0.582031,-0.826473 -0.582031,-1.623047 V 49 c 0,-5.70119 3.635528,-10.512001 8.667969,-12.271484 z m 8.332031,6.269531 c -1.304088,0.03024 -1.304088,1.971086 0,2 h 2.996094 c 1.304088,-0.03024 1.304088,-1.971049 0,-2 z M 9.0625,43.603516 c 0.5571024,0.243023 1.259113,0.392578 1.9375,0.392578 0.678388,0 1.35369,-0.149668 1.941406,-0.392578 C 15.316046,44.401185 17,46.670609 17,49.306641 v 1.173828 c 0,1.392756 -1.103818,2.517578 -2.503906,2.517578 H 7.4980469 C 6.0979965,52.998009 5,51.859618 5,50.480469 v -1.173828 c 0,-2.64 1.6862355,-4.904247 4.0625,-5.703125 z m 41.996094,0 c 0.564283,0.246803 1.263056,0.394531 1.941406,0.394531 0.67835,0 1.36082,-0.139829 1.9375,-0.394531 C 57.313765,44.402394 59,46.666641 59,49.306641 v 1.173828 c 0,1.379149 -1.097959,2.51754 -2.498047,2.517578 H 49.503906 C 48.103856,52.998047 47,51.859618 47,50.480469 v -1.173828 c 0,-2.636032 1.683954,-4.905456 4.058594,-5.703125 z" transform="scale(0.26458334)" id="path852" inkscape:connector-curvature="0" sodipodi:nodetypes="cccccccccccccccccccccccccccccccccccccccccccccccccccccccccccccccccccccccccccccccccccccccccccccccccccccccccccccccccccccccccccccccccccccccccccccccccccccccccccccccccccccccccccccccccccccccccccccccccccccccccccccccccccccccccccccccccccc"></path>
  </g>
</svg>